# xmcd CD database file
#
# Track frame offsets:
#	150
#	24970
#	45925
#	68030
#	86357
#	104595
#	133345
#	161355
#	181742
#	197822
#	224742
#
# Disc length: 3389 seconds
#
# Revision: 0
# Processed by: cddbd v1.5.1PL0 Copyright (c) Steve Scherf et al.
# Submitted via: CDex 1.51
#
DISCID=920d3b0b
DTITLE=The Blues Corporation - Take Me Home
DYEAR=1997
DGENRE=Blues
TTITLE0=What Can A Poor Boy Do
TTITLE1=Leland Mississippi Blues
TTITLE2=Bar Room Life
TTITLE3=Let Sleeping Dogs Lie
TTITLE4=Gonna Be Your man
TTITLE5=Sea Of Blues
TTITLE6=Heartbreak Hotel
TTITLE7=Homesick Blues
TTITLE8=47 Pontiac
TTITLE9=Your Turn Will Come One Day
TTITLE10=Take Me Home
EXTD=YEAR: 1997
EXTT0=
EXTT1=
EXTT2=
EXTT3=
EXTT4=
EXTT5=
EXTT6=
EXTT7=
EXTT8=
EXTT9=
EXTT10=
PLAYORDER=
